<?xml version="1.0" standalone="no"?>
<!DOCTYPE svg PUBLIC "-//W3C//DTD SVG 20010904//EN"
 "http://www.w3.org/TR/2001/REC-SVG-20010904/DTD/svg10.dtd">
<svg version="1.0" xmlns="http://www.w3.org/2000/svg"
 width="1280.000000pt" height="1280.000000pt" viewBox="0 0 1280.000000 1280.000000"
 preserveAspectRatio="xMidYMid meet">
<metadata>
Created by potrace 1.14, written by Peter Selinger 2001-2017
</metadata>
<g transform="translate(0.000000,1280.000000) scale(0.100000,-0.100000)"
fill="#000000" stroke="none">
<path d="M0 6400 l0 -6400 6400 0 6400 0 0 6400 0 6400 -6400 0 -6400 0 0
-6400z m5920 564 c528 -87 986 -466 1160 -959 56 -158 71 -244 77 -435 5 -169
1 -222 -33 -387 -6 -31 -5 -32 32 -38 237 -38 399 -87 583 -175 387 -187 673
-471 861 -855 104 -211 154 -385 179 -617 46 -415 -78 -878 -327 -1228 -81
-115 -258 -300 -367 -385 -270 -211 -590 -343 -945 -389 -63 -9 -142 -21 -175
-28 -47 -10 -425 -13 -1790 -13 -1908 0 -1788 -4 -1990 61 -475 153 -816 557
-884 1049 -6 42 -11 201 -11 354 l0 278 -46 33 c-67 48 -227 204 -294 285
-356 436 -495 1002 -380 1552 41 196 130 417 238 591 205 330 526 598 887 741
491 194 1040 170 1515 -67 74 -37 138 -67 141 -67 4 0 33 36 64 80 83 115 157
197 249 275 355 298 797 419 1256 344z"/>
</g>
</svg>
